<svg width="88" height="88" viewBox="0 0 88 88" fill="none" xmlns="http://www.w3.org/2000/svg">
<path d="M82.7418 46.4037C85.9453 44.9393 88.0822 41.7269 87.6207 38.235C86.7408 31.5768 84.3443 25.1815 80.5847 19.5549C75.7499 12.3191 68.878 6.67956 60.8381 3.3493C52.7981 0.0190446 43.9512 -0.852302 35.416 0.845448C26.8809 2.5432 19.0408 6.73379 12.8873 12.8873C6.73379 19.0408 2.5432 26.8809 0.845448 35.416C-0.852302 43.9512 0.0190448 52.7981 3.3493 60.8381C6.67956 68.878 12.3191 75.7499 19.5549 80.5847C25.1815 84.3443 31.5768 86.7408 38.235 87.6207C41.7269 88.0822 44.9393 85.9453 46.4037 82.7418L56.4099 60.8533C57.3091 58.8864 58.8864 57.3091 60.8533 56.4099L82.7418 46.4037Z" fill="#609DFF"/>
<path d="M84.8 44C84.8 35.9305 82.4072 28.0423 77.924 21.3328C73.4408 14.6232 67.0687 9.3938 59.6135 6.30575C52.1583 3.21769 43.9548 2.40971 36.0403 3.98399C28.1259 5.55827 20.8561 9.44409 15.1501 15.1501C9.44409 20.8561 5.55827 28.1259 3.98399 36.0403C2.40971 43.9548 3.21769 52.1583 6.30575 59.6135C9.3938 67.0687 14.6232 73.4408 21.3328 77.924C28.0423 82.4072 35.9305 84.8 44 84.8L75.8 84.8C80.7706 84.8 84.8 80.7706 84.8 75.8L84.8 44Z" fill="#3A86FF"/>
<circle cx="44.8" cy="44.8" r="26.2" fill="white" stroke="#7FB0FF" stroke-width="2"/>
</svg>
